<svg xmlns="http://www.w3.org/2000/svg" width="24" height="24" viewBox="11 11 24 24">
  <title>Google OAuth</title>
  <path fill="#4285F4" d="M32.938 23.235c0-.734-.068-1.44-.19-2.116H23v4.003h5.57c-.24 1.293-.97 2.39-2.065 3.122v2.598h3.347c1.955-1.803 3.086-4.456 3.086-7.608z"/>
  <path fill="#34A853" d="M23 33.35c2.795 0 5.137-.927 6.852-2.507l-3.347-2.598c-.927.622-2.112.987-3.505.987-2.696 0-4.978-1.818-5.792-4.266H13.75v2.68c1.704 3.384 5.205 5.704 9.25 5.704z"/>
  <path fill="#FBBC05" d="M17.208 24.967c-.206-.62-.324-1.284-.324-1.967 0-.682.118-1.346.324-1.967V18.35H13.75c-.7 1.4-1.1 2.98-1.1 4.65s.4 3.25 1.1 4.647l3.458-2.68z"/>
  <path fill="#EA4335" d="M23 16.766c1.52 0 2.885.522 3.956 1.548l2.968-2.968c-1.79-1.67-4.135-2.696-6.924-2.696-4.045 0-7.546 2.318-9.25 5.7l3.458 2.683c.814-2.446 3.096-4.267 5.792-4.267z"/>
  <path fill="none" d="M12.65 12.65h20.7v20.7h-20.7v-20.7z"/>
</svg>
