<svg xmlns="http://www.w3.org/2000/svg" height="52" viewBox="0 0 280 52" width="280" fill="#424242">
  <path d="M-132.79 47.89v1.19c0 3.424-1.047 5.614-3.378 6.707 2.808 1.096 3.902 3.617 3.902 7.14v2.714c0 5.14-2.713 7.9-7.95 7.9h-8.23V40.23h7.9c5.43 0 7.76 2.52 7.76 7.66zm-10.42-2.904v8.807h2.047c1.95 0 3.14-.86 3.14-3.523v-1.855c0-2.38-.81-3.428-2.664-3.428h-2.53zm0 13.563v10.23h2.995c1.76 0 2.715-.81 2.715-3.283v-2.903c0-3.094-1-4.045-3.38-4.045h-2.33zM-123.89 54.267h7.185v4.758h-7.185v9.757h9.04v4.76h-14.275V40.228h14.275v4.76h-9.04v9.28zM-106.38 73.54h-5.234V40.23h5.234v14.277h5.948V40.228h5.33V73.54h-5.33V59.264h-5.948V73.54zM-74.358 73.54h-5.282l-.904-6.045h-6.424l-.905 6.046h-4.807l5.33-33.312h7.66l5.332 33.313zm-11.946-10.564h5.045l-2.52-16.847-2.524 16.846zM-65.224 67.4l3.996-27.173h4.808l-5.14 33.313h-7.804l-5.14-33.313h5.28l4 27.173zM-53.994 40.228h5.234V73.54h-5.234V40.23zM-45.384 48.222c0-5.33 2.81-8.376 7.95-8.376 5.136 0 7.944 3.045 7.944 8.376v17.323c0 5.327-2.81 8.374-7.944 8.374-5.142 0-7.95-3.048-7.95-8.375V48.222zm5.234 17.654c0 2.38 1.047 3.285 2.717 3.285 1.664 0 2.71-.903 2.71-3.284V47.89c0-2.38-1.046-3.283-2.71-3.283-1.67 0-2.717.902-2.717 3.282v17.986zM-15.166 73.54c-.285-.858-.477-1.38-.477-4.095v-5.232c0-3.095-1.047-4.236-3.426-4.236h-1.808V73.54h-5.234V40.23h7.898c5.428 0 7.757 2.52 7.757 7.66v2.62c0 3.426-1.094 5.66-3.426 6.757 2.617 1.094 3.473 3.617 3.473 7.09v5.14c0 1.62.05 2.806.572 4.047h-5.328zm-5.71-28.554v10.23h2.045c1.95 0 3.14-.855 3.14-3.52v-3.283c0-2.38-.81-3.428-2.664-3.428h-2.523zM-167.84 26.307c0 5.33 2.81 8.376 7.947 8.376v-4.76c-1.665 0-2.712-.904-2.712-3.284V14.075h-5.235v12.23z"/>
  <path d="M-159.89.61c-5.026 0-7.805 2.93-7.924 8.042h5.212c0-2.38 1.047-3.285 2.712-3.285 1.666 0 2.713.904 2.713 3.285v17.915h5.224c0-.09.01-.17.01-.26V8.984c.01-5.33-2.8-8.375-7.94-8.375zM-143.57.99v25.697c0 2.38 1.046 3.235 2.71 3.235 1.667 0 2.714-.854 2.714-3.235V.99h4.95v25.364c0 5.33-2.666 8.376-7.805 8.376-5.14 0-7.805-3.046-7.805-8.376V.99h5.23zM-124.39 15.03h7.187v4.758h-7.187v9.756h9.043v4.76h-14.277V.99h14.277v4.758h-9.043v9.28zM-105.07.61c5.093 0 7.71 3.045 7.71 8.374v1.048h-4.948v-1.38c0-2.38-.95-3.284-2.62-3.284-1.663 0-2.616.904-2.616 3.285 0 6.853 10.23 8.137 10.23 17.654 0 5.33-2.663 8.376-7.803 8.376-5.14 0-7.805-3.045-7.805-8.376v-2.045h4.95v2.378c0 2.38 1.046 3.237 2.712 3.237 1.665 0 2.712-.857 2.712-3.237 0-6.853-10.23-8.137-10.23-17.656 0-5.33 2.61-8.375 7.71-8.375zM-95.843.99h16.18v4.758h-5.473v28.554h-5.235V5.75h-5.473V.99zM-77.382.99h5.234v33.312h-5.234V.99zM-68.77 8.984c0-5.33 2.807-8.375 7.947-8.375s7.946 3.045 7.946 8.374v17.323c0 5.33-2.807 8.376-7.946 8.376-5.14 0-7.947-3.045-7.947-8.376V8.984zm5.235 17.656c0 2.38 1.047 3.283 2.713 3.283 1.665 0 2.71-.903 2.71-3.283V8.653c0-2.38-1.045-3.285-2.71-3.285-1.666 0-2.713.904-2.713 3.285V26.64zM-44.836 10.175v24.128h-4.71V.99h6.566l5.377 19.94V.99h4.665v33.312h-5.377l-6.52-24.127z"/>
  <circle cy="33.66" cx="-153.54" r="2.688"/>
  <path d="M155.91 25.737v1.195c0 3.437-1.052 5.636-3.39 6.732 2.817 1.1 3.916 3.63 3.916 7.166v2.722c0 5.155-2.724 7.93-7.98 7.93h-8.26V18.05h7.928c5.44 0 7.78 2.53 7.78 7.69zm-10.45-2.913v8.838h2.055c1.956 0 3.15-.864 3.15-3.536v-1.862c0-2.39-.813-3.44-2.672-3.44h-2.54zm0 13.61v10.27h3.006c1.767 0 2.725-.813 2.725-3.295v-2.914c0-3.105-1.002-4.06-3.39-4.06h-2.35zM164.84 32.137h7.21v4.775h-7.21v9.792h9.07v4.778h-14.32V18.048h14.326v4.776h-9.07v9.313zM182.42 51.482h-5.253V18.048h5.253v14.33h5.97v-14.33h5.35v33.435h-5.35v-14.33h-5.97v14.33zM214.56 51.482h-5.3l-.91-6.07h-6.445l-.91 6.07h-4.822l5.35-33.435h7.686l5.35 33.435zm-11.99-10.604h5.064l-2.532-16.907-2.53 16.908zM223.72 45.318l4.012-27.27h4.825l-5.16 33.434h-7.83l-5.158-33.435h5.298l4.01 27.27zM235 18.048h5.253v33.435H235V18.048zM243.64 26.07c0-5.35 2.818-8.406 7.98-8.406 5.153 0 7.973 3.056 7.973 8.406v17.386c0 5.347-2.82 8.405-7.974 8.405-5.16 0-7.98-3.058-7.98-8.404V26.07zm5.25 17.72c0 2.388 1.05 3.296 2.726 3.296 1.67 0 2.72-.908 2.72-3.297V25.736c0-2.39-1.05-3.295-2.72-3.295-1.676 0-2.726.906-2.726 3.295V43.79zM273.96 51.482c-.286-.863-.478-1.39-.478-4.11V42.12c0-3.106-1.052-4.252-3.438-4.252h-1.816v13.615h-5.253V18.048h7.927c5.446 0 7.784 2.53 7.784 7.69v2.627c0 3.44-1.097 5.68-3.438 6.782 2.63 1.098 3.486 3.63 3.486 7.116v5.157c0 1.625.05 2.816.574 4.062h-5.34zm-5.73-28.658v10.268h2.054c1.96 0 3.15-.86 3.15-3.533v-3.295c0-2.39-.812-3.44-2.672-3.44h-2.53zM1.312 26.308c0 5.35 2.818 8.406 7.977 8.406v-4.777c-1.672 0-2.724-.907-2.724-3.295v-12.61H1.312v12.276z"/>
  <path d="M9.288.517c-5.046 0-7.833 2.94-7.953 8.073h5.23c0-2.39 1.052-3.297 2.723-3.297S12.01 6.2 12.01 8.59v17.98h5.243c0-.09.01-.172.01-.262V8.922c0-5.347-2.816-8.405-7.975-8.405zM25.668.9v25.79c0 2.39 1.05 3.247 2.72 3.247 1.673 0 2.724-.858 2.724-3.248V.9h4.97v25.455c0 5.35-2.676 8.406-7.833 8.406-5.16 0-7.834-3.056-7.834-8.405V.9h5.252zM44.912 14.988h7.213v4.776h-7.213v9.79h9.076v4.778h-14.33V.9h14.33v4.775h-9.076v9.313zM64.3.517c5.113 0 7.74 3.058 7.74 8.405v1.052h-4.967V8.59c0-2.39-.956-3.297-2.63-3.297-1.67 0-2.627.907-2.627 3.297 0 6.877 10.27 8.167 10.27 17.718 0 5.35-2.673 8.406-7.832 8.406-5.157 0-7.833-3.056-7.833-8.406v-2.053h4.968v2.387c0 2.39 1.05 3.25 2.722 3.25 1.673 0 2.723-.86 2.723-3.25 0-6.877-10.268-8.167-10.268-17.72 0-5.347 2.625-8.405 7.735-8.405zM73.565.9h16.237v4.775H84.31v28.658h-5.254V5.675h-5.49V.9zM92.094.9h5.252v33.433h-5.252V.9zM100.74 8.922c0-5.347 2.816-8.405 7.977-8.405 5.157 0 7.975 3.058 7.975 8.405v17.386c0 5.35-2.817 8.406-7.975 8.406-5.16 0-7.977-3.056-7.977-8.406V8.922zm5.25 17.72c0 2.39 1.05 3.295 2.723 3.295 1.67 0 2.72-.907 2.72-3.295V8.59c0-2.39-1.05-3.297-2.72-3.297-1.674 0-2.723.907-2.723 3.297v18.052zM124.76 10.117v24.216h-4.728V.9h6.59l5.396 20.01V.9h4.682v33.433h-5.396l-6.54-24.216z"/>
  <circle cy="33.686" cx="15.664" r="2.698"/>
</svg>
